<?xml version="1.0" encoding="UTF-8"?>
<svg id="Layer_2" data-name="Layer 2" xmlns="http://www.w3.org/2000/svg" viewBox="0 0 2074.58 724.37">
  <defs>
    <style>
      .cls-1 {
        font-size: 85px;
      }

      .cls-1, .cls-2, .cls-3, .cls-4, .cls-5, .cls-6, .cls-7, .cls-8, .cls-9, .cls-10, .cls-11, .cls-12, .cls-13, .cls-14, .cls-15, .cls-16, .cls-17, .cls-18, .cls-19, .cls-20, .cls-21, .cls-22, .cls-23, .cls-24, .cls-25, .cls-26, .cls-27, .cls-28, .cls-29, .cls-30, .cls-31, .cls-32 {
        font-family: ArialMT, Arial;
      }

      .cls-2 {
        font-size: 36px;
      }

      .cls-3 {
        font-size: 72px;
      }

      .cls-4 {
        font-size: 20px;
      }

      .cls-5 {
        font-size: 71px;
      }

      .cls-6 {
        font-size: 39px;
      }

      .cls-33 {
        stroke-width: 4.27px;
      }

      .cls-33, .cls-34 {
        stroke-linejoin: round;
      }

      .cls-33, .cls-34, .cls-35 {
        fill: none;
        stroke: #000;
      }

      .cls-36 {
        letter-spacing: -.03em;
      }

      .cls-7 {
        font-size: 51px;
      }

      .cls-37 {
        fill: #dd8452;
      }

      .cls-38 {
        fill: #4c72b0;
      }

      .cls-8 {
        font-size: 14px;
      }

      .cls-9 {
        font-size: 28px;
      }

      .cls-10 {
        font-size: 25px;
      }

      .cls-34 {
        stroke-width: 1.07px;
      }

      .cls-11 {
        font-size: 44px;
      }

      .cls-12 {
        font-size: 22px;
      }

      .cls-13 {
        font-size: 27px;
      }

      .cls-14 {
        font-size: 34px;
      }

      .cls-15 {
        font-size: 61px;
      }

      .cls-16 {
        font-size: 68px;
      }

      .cls-17 {
        font-size: 29px;
      }

      .cls-18 {
        font-size: 26px;
      }

      .cls-19 {
        font-size: 33px;
      }

      .cls-20 {
        font-size: 32px;
      }

      .cls-21 {
        font-size: 31px;
      }

      .cls-39 {
        letter-spacing: -.05em;
      }

      .cls-22 {
        font-size: 64px;
      }

      .cls-23 {
        font-size: 35px;
      }

      .cls-24 {
        font-size: 35px;
      }

      .cls-25 {
        font-size: 42px;
      }

      .cls-26 {
        font-size: 63px;
      }

      .cls-35 {
        stroke-miterlimit: 10;
        stroke-width: 4.46px;
      }

      .cls-27 {
        font-size: 62px;
      }

      .cls-28 {
        font-size: 30px;
      }

      .cls-29 {
        font-size: 38px;
      }

      .cls-30 {
        font-size: 82px;
      }

      .cls-31 {
        font-size: 40px;
      }

      .cls-32 {
        font-size: 24px;
      }
    </style>
  </defs>
  <g id="Layer_1-2" data-name="Layer 1">
    <g>
      <g>
        <text class="cls-23" transform="translate(1837.12 275.72)"><tspan x="0" y="0">•</tspan></text>
        <text class="cls-27" transform="translate(1916.12 285.39)"><tspan x="0" y="0">•</tspan></text>
        <text class="cls-30" transform="translate(1998.62 292.55)"><tspan x="0" y="0">•</tspan></text>
        <text class="cls-23" transform="translate(1813.34 243.67)"><tspan x="0" y="0">100</tspan></text>
        <text class="cls-23" transform="translate(1898.34 243.67)"><tspan x="0" y="0">500</tspan></text>
        <text class="cls-23" transform="translate(1973.61 243.67)"><tspan x="0" y="0">1000</tspan></text>
        <g>
          <text class="cls-23" transform="translate(1812.32 59.36)"><tspan x="0" y="0">N</tspan><tspan class="cls-36" x="25.28" y="0">e</tspan><tspan x="43.69" y="0">xtclade</tspan></text>
          <text class="cls-23" transform="translate(1813.58 97.16)"><tspan x="0" y="0">assignment</tspan></text>
          <rect class="cls-37" x="1814.98" y="119.23" width="20" height="20"/>
          <rect class="cls-38" x="1814.98" y="149.21" width="20" height="20"/>
          <text class="cls-28" transform="translate(1851.05 139.73)"><tspan x="0" y="0">Not a match</tspan></text>
          <text class="cls-28" transform="translate(1851.05 169.73)"><tspan x="0" y="0">Match</tspan></text>
        </g>
        <text class="cls-23" transform="translate(1811.93 318.37)"><tspan x="0" y="0">Size proportional</tspan><tspan x="0" y="42">to number of</tspan><tspan x="0" y="84">sequences</tspan></text>
        <g>
          <path class="cls-35" d="M1908.14,413.01c0,21.13-37.65,38.56-86.55,41.29"/>
          <path d="M1808.14,454.67c6.24-2.56,13.96-6.83,18.68-11.23l-3.47,10.72,4.19,10.46c-5.01-4.08-12.99-7.81-19.39-9.95Z"/>
        </g>
      </g>
      <text class="cls-31" transform="translate(861.43 685.2)"><tspan x="0" y="0">LABEL clade</tspan></text>
      <g>
        <g>
          <rect class="cls-38" x="158.87" y="22.22" width="36.84" height="413.08"/>
          <rect class="cls-38" x="199.8" y="60.59" width="36.84" height="374.7"/>
          <rect class="cls-38" x="240.73" y="27.25" width="36.84" height="408.04"/>
          <rect class="cls-38" x="281.67" y="35.34" width="36.84" height="399.96"/>
          <rect class="cls-38" x="322.6" y="40.54" width="36.84" height="394.76"/>
          <rect class="cls-38" x="363.53" y="120.8" width="36.84" height="314.5"/>
          <rect class="cls-38" x="404.47" y="22.22" width="36.84" height="413.08"/>
          <rect class="cls-38" x="445.4" y="22.22" width="36.84" height="413.08"/>
          <rect class="cls-38" x="486.33" y="58.67" width="36.84" height="376.63"/>
          <rect class="cls-38" x="527.27" y="23.62" width="36.84" height="411.67"/>
          <rect class="cls-38" x="568.2" y="33.7" width="36.84" height="401.6"/>
          <rect class="cls-38" x="609.13" y="127.59" width="36.84" height="307.7"/>
          <rect class="cls-38" x="650.07" y="22.22" width="36.84" height="413.08"/>
          <rect class="cls-38" x="691" y="70.52" width="36.84" height="364.77"/>
          <rect class="cls-38" x="731.93" y="32.59" width="36.84" height="402.71"/>
          <rect class="cls-38" x="772.87" y="35.34" width="36.84" height="399.96"/>
          <rect class="cls-38" x="813.8" y="22.22" width="36.84" height="413.08"/>
          <rect class="cls-38" x="854.73" y="25.93" width="36.84" height="409.37"/>
          <rect class="cls-38" x="895.66" y="22.22" width="36.84" height="413.08"/>
          <rect class="cls-38" x="936.6" y="33.86" width="36.84" height="401.44"/>
          <rect class="cls-38" x="977.53" y="87.44" width="36.84" height="347.86"/>
          <rect class="cls-38" x="1018.46" y="31.2" width="36.84" height="404.1"/>
          <rect class="cls-38" x="1059.4" y="51.73" width="36.84" height="383.57"/>
          <rect class="cls-38" x="1100.33" y="23.06" width="36.84" height="412.24"/>
          <rect class="cls-38" x="1141.26" y="22.22" width="36.84" height="413.08"/>
          <rect class="cls-38" x="1182.2" y="28.48" width="36.84" height="406.82"/>
          <rect class="cls-38" x="1223.13" y="22.22" width="36.84" height="413.08"/>
          <rect class="cls-38" x="1264.06" y="355.86" width="36.84" height="79.44"/>
          <rect class="cls-38" x="1305" y="193.14" width="36.84" height="242.15"/>
          <rect class="cls-38" x="1345.93" y="369.58" width="36.84" height="65.72"/>
          <rect class="cls-38" x="1386.86" y="22.22" width="36.84" height="413.08"/>
          <rect class="cls-38" x="1427.8" y="228.76" width="36.84" height="206.54"/>
          <rect class="cls-38" x="1468.73" y="125.49" width="36.84" height="309.81"/>
          <rect class="cls-38" x="1509.66" y="22.22" width="36.84" height="413.08"/>
          <rect class="cls-38" x="1550.59" y="22.22" width="36.84" height="413.08"/>
          <rect class="cls-38" x="1591.53" y="68.12" width="36.84" height="367.18"/>
          <rect class="cls-38" x="1632.46" y="22.22" width="36.84" height="413.08"/>
          <rect class="cls-38" x="1673.39" y="228.76" width="36.84" height="206.54"/>
          <rect class="cls-38" x="1714.33" y="22.22" width="36.84" height="413.08"/>
          <rect class="cls-38" x="1755.26" y="28.12" width="36.84" height="407.17"/>
          <rect class="cls-37" x="199.8" y="22.21" width="36.84" height="38.38"/>
          <rect class="cls-37" x="240.73" y="22.22" width="36.84" height="5.04"/>
          <rect class="cls-37" x="281.67" y="22.23" width="36.84" height="13.11"/>
          <rect class="cls-37" x="322.6" y="22.23" width="36.84" height="18.31"/>
          <rect class="cls-37" x="363.53" y="22.23" width="36.84" height="98.57"/>
          <rect class="cls-37" x="486.33" y="22.21" width="36.84" height="36.45"/>
          <rect class="cls-37" x="527.27" y="22.23" width="36.84" height="1.41"/>
          <rect class="cls-37" x="568.2" y="22.23" width="36.84" height="11.47"/>
          <rect class="cls-37" x="609.13" y="22.21" width="36.84" height="105.38"/>
          <rect class="cls-37" x="691" y="22.23" width="36.84" height="48.3"/>
          <rect class="cls-37" x="731.93" y="22.23" width="36.84" height="10.36"/>
          <rect class="cls-37" x="772.87" y="22.23" width="36.84" height="13.11"/>
          <rect class="cls-37" x="854.73" y="22.22" width="36.84" height="3.71"/>
          <rect class="cls-37" x="936.6" y="22.21" width="36.84" height="11.64"/>
          <rect class="cls-37" x="977.53" y="22.23" width="36.84" height="65.21"/>
          <rect class="cls-37" x="1018.46" y="22.23" width="36.84" height="8.98"/>
          <rect class="cls-37" x="1059.4" y="22.21" width="36.84" height="29.51"/>
          <rect class="cls-37" x="1100.33" y="22.21" width="36.84" height=".84"/>
          <rect class="cls-37" x="1182.2" y="22.21" width="36.84" height="6.26"/>
          <rect class="cls-37" x="1264.06" y="22.23" width="36.84" height="333.64"/>
          <rect class="cls-37" x="1305" y="22.23" width="36.84" height="170.92"/>
          <rect class="cls-37" x="1345.93" y="22.23" width="36.84" height="347.36"/>
          <rect class="cls-37" x="1427.8" y="22.23" width="36.84" height="206.54"/>
          <rect class="cls-37" x="1468.73" y="22.22" width="36.84" height="103.27"/>
          <rect class="cls-37" x="1591.53" y="22.21" width="36.84" height="45.9"/>
          <rect class="cls-37" x="1673.39" y="22.23" width="36.84" height="206.54"/>
          <rect class="cls-37" x="1755.26" y="22.23" width="36.84" height="5.9"/>
        </g>
        <text class="cls-6" transform="translate(169.7 469.96)"><tspan x="0" y="0">•</tspan></text>
        <text class="cls-16" transform="translate(204.99 480.36)"><tspan x="0" y="0">•</tspan></text>
        <text class="cls-19" transform="translate(252.74 467.81)"><tspan x="0" y="0">•</tspan></text>
        <text class="cls-21" transform="translate(294.06 467.09)"><tspan x="0" y="0">•</tspan></text>
        <text class="cls-11" transform="translate(332.46 471.75)"><tspan x="0" y="0">•</tspan></text>
        <text class="cls-14" transform="translate(375.34 468.15)"><tspan x="0" y="0">•</tspan></text>
        <text class="cls-9" transform="translate(417.44 466.01)"><tspan x="0" y="0">•</tspan></text>
        <text class="cls-9" transform="translate(458.37 466.01)"><tspan x="0" y="0">•</tspan></text>
        <text class="cls-18" transform="translate(499.7 465.29)"><tspan x="0" y="0">•</tspan></text>
        <text class="cls-7" transform="translate(535.77 474.26)"><tspan x="0" y="0">•</tspan></text>
        <text class="cls-20" transform="translate(580.4 467.44)"><tspan x="0" y="0">•</tspan></text>
        <text class="cls-23" transform="translate(620.74 468.51)"><tspan x="0" y="0">•</tspan></text>
        <text class="cls-13" transform="translate(663.23 465.64)"><tspan x="0" y="0">•</tspan></text>
        <text class="cls-3" transform="translate(695.41 481.81)"><tspan x="0" y="0">•</tspan></text>
        <text class="cls-26" transform="translate(738.1 478.57)"><tspan x="0" y="0">•</tspan></text>
        <text class="cls-29" transform="translate(783.89 469.6)"><tspan x="0" y="0">•</tspan></text>
        <text class="cls-2" transform="translate(825.22 468.88)"><tspan x="0" y="0">•</tspan></text>
        <text class="cls-22" transform="translate(860.7 478.93)"><tspan x="0" y="0">•</tspan></text>
        <text class="cls-19" transform="translate(907.67 467.81)"><tspan x="0" y="0">•</tspan></text>
        <text class="cls-20" transform="translate(948.79 467.44)"><tspan x="0" y="0">•</tspan></text>
        <text class="cls-12" transform="translate(991.67 463.85)"><tspan x="0" y="0">•</tspan></text>
        <text class="cls-14" transform="translate(1030.27 468.15)"><tspan x="0" y="0">•</tspan></text>
        <text class="cls-10" transform="translate(1072.95 464.93)"><tspan x="0" y="0">•</tspan></text>
        <text class="cls-15" transform="translate(1106.89 477.85)"><tspan x="0" y="0">•</tspan></text>
        <text class="cls-9" transform="translate(1154.24 466.01)"><tspan x="0" y="0">•</tspan></text>
        <text class="cls-21" transform="translate(1194.59 467.09)"><tspan x="0" y="0">•</tspan></text>
        <text class="cls-25" transform="translate(1233.38 471.04)"><tspan x="0" y="0">•</tspan></text>
        <text class="cls-32" transform="translate(1277.81 464.56)"><tspan x="0" y="0">•</tspan></text>
        <text class="cls-10" transform="translate(1318.55 464.93)"><tspan x="0" y="0">•</tspan></text>
        <text class="cls-9" transform="translate(1358.9 466.01)"><tspan x="0" y="0">•</tspan></text>
        <text class="cls-32" transform="translate(1400.61 464.56)"><tspan x="0" y="0">•</tspan></text>
        <text class="cls-10" transform="translate(1441.35 464.93)"><tspan x="0" y="0">•</tspan></text>
        <text class="cls-4" transform="translate(1483.26 463.14)"><tspan x="0" y="0">•</tspan></text>
        <text class="cls-28" transform="translate(1522.25 466.72)"><tspan x="0" y="0">•</tspan></text>
        <text class="cls-12" transform="translate(1564.74 463.85)"><tspan x="0" y="0">•</tspan></text>
        <text class="cls-17" transform="translate(1604.31 466.36)"><tspan x="0" y="0">•</tspan></text>
        <text class="cls-8" transform="translate(1648.16 460.97)"><tspan x="0" y="0">•</tspan></text>
        <text class="cls-13" transform="translate(1686.56 465.64)"><tspan x="0" y="0">•</tspan></text>
        <text class="cls-1" transform="translate(1716.22 486.47)"><tspan x="0" y="0">•</tspan></text>
        <text class="cls-5" transform="translate(1759.87 481.44)"><tspan x="0" y="0">•</tspan></text>
        <text class="cls-16" transform="translate(204.99 480.36)"><tspan x="0" y="0">•</tspan></text>
        <text class="cls-16" transform="translate(204.99 480.36)"><tspan x="0" y="0">•</tspan></text>
        <text class="cls-19" transform="translate(252.74 467.81)"><tspan x="0" y="0">•</tspan></text>
        <text class="cls-21" transform="translate(294.06 467.09)"><tspan x="0" y="0">•</tspan></text>
        <text class="cls-11" transform="translate(332.46 471.75)"><tspan x="0" y="0">•</tspan></text>
        <text class="cls-14" transform="translate(375.34 468.15)"><tspan x="0" y="0">•</tspan></text>
        <text class="cls-14" transform="translate(375.34 468.15)"><tspan x="0" y="0">•</tspan></text>
        <text class="cls-14" transform="translate(375.34 468.15)"><tspan x="0" y="0">•</tspan></text>
        <text class="cls-14" transform="translate(375.34 468.15)"><tspan x="0" y="0">•</tspan></text>
        <text class="cls-14" transform="translate(375.34 468.15)"><tspan x="0" y="0">•</tspan></text>
        <text class="cls-18" transform="translate(499.7 465.29)"><tspan x="0" y="0">•</tspan></text>
        <text class="cls-7" transform="translate(535.77 474.26)"><tspan x="0" y="0">•</tspan></text>
        <text class="cls-20" transform="translate(580.4 467.44)"><tspan x="0" y="0">•</tspan></text>
        <text class="cls-23" transform="translate(620.74 468.51)"><tspan x="0" y="0">•</tspan></text>
        <text class="cls-3" transform="translate(695.41 481.81)"><tspan x="0" y="0">•</tspan></text>
        <text class="cls-3" transform="translate(695.41 481.81)"><tspan x="0" y="0">•</tspan></text>
        <text class="cls-26" transform="translate(738.1 478.57)"><tspan x="0" y="0">•</tspan></text>
        <text class="cls-26" transform="translate(738.1 478.57)"><tspan x="0" y="0">•</tspan></text>
        <text class="cls-26" transform="translate(738.1 478.57)"><tspan x="0" y="0">•</tspan></text>
        <text class="cls-26" transform="translate(738.1 478.57)"><tspan x="0" y="0">•</tspan></text>
        <text class="cls-29" transform="translate(783.89 469.6)"><tspan x="0" y="0">•</tspan></text>
        <text class="cls-22" transform="translate(860.7 478.93)"><tspan x="0" y="0">•</tspan></text>
        <text class="cls-22" transform="translate(860.7 478.93)"><tspan x="0" y="0">•</tspan></text>
        <text class="cls-20" transform="translate(948.79 467.44)"><tspan x="0" y="0">•</tspan></text>
        <text class="cls-12" transform="translate(991.67 463.85)"><tspan x="0" y="0">•</tspan></text>
        <text class="cls-12" transform="translate(991.67 463.85)"><tspan x="0" y="0">•</tspan></text>
        <text class="cls-14" transform="translate(1030.27 468.15)"><tspan x="0" y="0">•</tspan></text>
        <text class="cls-10" transform="translate(1072.95 464.93)"><tspan x="0" y="0">•</tspan></text>
        <text class="cls-15" transform="translate(1106.89 477.85)"><tspan x="0" y="0">•</tspan></text>
        <text class="cls-21" transform="translate(1194.59 467.09)"><tspan x="0" y="0">•</tspan></text>
        <text class="cls-32" transform="translate(1277.81 464.56)"><tspan x="0" y="0">•</tspan></text>
        <text class="cls-10" transform="translate(1318.55 464.93)"><tspan x="0" y="0">•</tspan></text>
        <text class="cls-10" transform="translate(1318.55 464.93)"><tspan x="0" y="0">•</tspan></text>
        <text class="cls-9" transform="translate(1358.9 466.01)"><tspan x="0" y="0">•</tspan></text>
        <text class="cls-10" transform="translate(1441.35 464.93)"><tspan x="0" y="0">•</tspan></text>
        <text class="cls-4" transform="translate(1483.26 463.14)"><tspan x="0" y="0">•</tspan></text>
        <text class="cls-4" transform="translate(1483.26 463.14)"><tspan x="0" y="0">•</tspan></text>
        <text class="cls-17" transform="translate(1604.31 466.36)"><tspan x="0" y="0">•</tspan></text>
        <text class="cls-13" transform="translate(1686.56 465.64)"><tspan x="0" y="0">•</tspan></text>
        <text class="cls-5" transform="translate(1759.87 481.44)"><tspan x="0" y="0">•</tspan></text>
        <text class="cls-5" transform="translate(1759.87 481.44)"><tspan x="0" y="0">•</tspan></text>
        <text class="cls-5" transform="translate(1759.87 481.44)"><tspan x="0" y="0">•</tspan></text>
        <line class="cls-34" x1="152.73" y1="477.64" x2="152.73" y2=".54"/>
        <text class="cls-23" transform="translate(121.15 447.86)"><tspan x="0" y="0">0</tspan></text>
        <text class="cls-23" transform="translate(101.69 344.6)"><tspan x="0" y="0">25</tspan></text>
        <text class="cls-23" transform="translate(101.69 241.33)"><tspan x="0" y="0">50</tspan></text>
        <text class="cls-23" transform="translate(101.69 138.06)"><tspan x="0" y="0">75</tspan></text>
        <text class="cls-23" transform="translate(82.23 34.79)"><tspan x="0" y="0">100</tspan></text>
        <line class="cls-33" x1="142.81" y1="435.3" x2="152.73" y2="435.3"/>
        <line class="cls-33" x1="142.81" y1="332.03" x2="152.73" y2="332.03"/>
        <line class="cls-33" x1="142.81" y1="228.77" x2="152.73" y2="228.77"/>
        <line class="cls-33" x1="142.81" y1="125.5" x2="152.73" y2="125.5"/>
        <line class="cls-33" x1="142.81" y1="22.23" x2="152.73" y2="22.23"/>
        <line class="cls-34" x1="152.73" y1="477.64" x2="1798.24" y2="477.64"/>
        <line class="cls-33" x1="177.29" y1="487.57" x2="177.29" y2="477.64"/>
        <line class="cls-33" x1="218.22" y1="487.57" x2="218.22" y2="477.64"/>
        <line class="cls-33" x1="259.15" y1="487.57" x2="259.15" y2="477.64"/>
        <line class="cls-33" x1="300.09" y1="487.57" x2="300.09" y2="477.64"/>
        <line class="cls-33" x1="341.02" y1="487.57" x2="341.02" y2="477.64"/>
        <line class="cls-33" x1="381.95" y1="487.57" x2="381.95" y2="477.64"/>
        <line class="cls-33" x1="422.89" y1="487.57" x2="422.89" y2="477.64"/>
        <line class="cls-33" x1="463.82" y1="487.57" x2="463.82" y2="477.64"/>
        <line class="cls-33" x1="504.75" y1="487.57" x2="504.75" y2="477.64"/>
        <line class="cls-33" x1="545.69" y1="487.57" x2="545.69" y2="477.64"/>
        <line class="cls-33" x1="586.62" y1="487.57" x2="586.62" y2="477.64"/>
        <line class="cls-33" x1="627.55" y1="487.57" x2="627.55" y2="477.64"/>
        <line class="cls-33" x1="668.49" y1="487.57" x2="668.49" y2="477.64"/>
        <line class="cls-33" x1="709.42" y1="487.57" x2="709.42" y2="477.64"/>
        <line class="cls-33" x1="750.35" y1="487.57" x2="750.35" y2="477.64"/>
        <line class="cls-33" x1="791.29" y1="487.57" x2="791.29" y2="477.64"/>
        <line class="cls-33" x1="832.22" y1="487.57" x2="832.22" y2="477.64"/>
        <line class="cls-33" x1="873.15" y1="487.57" x2="873.15" y2="477.64"/>
        <line class="cls-33" x1="914.08" y1="487.57" x2="914.08" y2="477.64"/>
        <line class="cls-33" x1="955.02" y1="487.57" x2="955.02" y2="477.64"/>
        <line class="cls-33" x1="995.95" y1="487.57" x2="995.95" y2="477.64"/>
        <line class="cls-33" x1="1036.88" y1="487.57" x2="1036.88" y2="477.64"/>
        <line class="cls-33" x1="1077.82" y1="487.57" x2="1077.82" y2="477.64"/>
        <line class="cls-33" x1="1118.75" y1="487.57" x2="1118.75" y2="477.64"/>
        <line class="cls-33" x1="1159.68" y1="487.57" x2="1159.68" y2="477.64"/>
        <line class="cls-33" x1="1200.62" y1="487.57" x2="1200.62" y2="477.64"/>
        <line class="cls-33" x1="1241.55" y1="487.57" x2="1241.55" y2="477.64"/>
        <line class="cls-33" x1="1282.48" y1="487.57" x2="1282.48" y2="477.64"/>
        <line class="cls-33" x1="1323.42" y1="487.57" x2="1323.42" y2="477.64"/>
        <line class="cls-33" x1="1364.35" y1="487.57" x2="1364.35" y2="477.64"/>
        <line class="cls-33" x1="1405.28" y1="487.57" x2="1405.28" y2="477.64"/>
        <line class="cls-33" x1="1446.22" y1="487.57" x2="1446.22" y2="477.64"/>
        <line class="cls-33" x1="1487.15" y1="487.57" x2="1487.15" y2="477.64"/>
        <line class="cls-33" x1="1528.08" y1="487.57" x2="1528.08" y2="477.64"/>
        <line class="cls-33" x1="1569.01" y1="487.57" x2="1569.01" y2="477.64"/>
        <line class="cls-33" x1="1609.95" y1="487.57" x2="1609.95" y2="477.64"/>
        <line class="cls-33" x1="1650.88" y1="487.57" x2="1650.88" y2="477.64"/>
        <line class="cls-33" x1="1691.81" y1="487.57" x2="1691.81" y2="477.64"/>
        <line class="cls-33" x1="1732.75" y1="487.57" x2="1732.75" y2="477.64"/>
        <line class="cls-33" x1="1773.68" y1="487.57" x2="1773.68" y2="477.64"/>
        <text class="cls-24" transform="translate(185.86 513.76) rotate(-90)"><tspan x="0" y="0">0</tspan></text>
        <text class="cls-24" transform="translate(226.81 511.4) rotate(-90)"><tspan x="0" y="0">1</tspan></text>
        <text class="cls-24" transform="translate(267.76 540.59) rotate(-90)"><tspan x="0" y="0">1.1</tspan></text>
        <text class="cls-24" transform="translate(308.72 569.78) rotate(-90)"><tspan x="0" y="0">1.1.1</tspan></text>
        <text class="cls-24" transform="translate(349.68 569.78) rotate(-90)"><tspan x="0" y="0">1.1.2</tspan></text>
        <text class="cls-24" transform="translate(390.63 572.53) rotate(-90)"><tspan x="0" y="0">2.1.1</tspan></text>
        <text class="cls-24" transform="translate(431.59 572.53) rotate(-90)"><tspan x="0" y="0">2.1.2</tspan></text>
        <text class="cls-24" transform="translate(472.55 572.53) rotate(-90)"><tspan x="0" y="0">2.1.3</tspan></text>
        <text class="cls-24" transform="translate(513.5 601.73) rotate(-90)"><tspan x="0" y="0">2.1.3.1</tspan></text>
        <text class="cls-24" transform="translate(554.46 601.73) rotate(-90)"><tspan x="0" y="0">2.1.3.2</tspan></text>
        <text class="cls-24" transform="translate(595.41 621.19) rotate(-90)"><tspan x="0" y="0">2.1.3.2a</tspan></text>
        <text class="cls-24" transform="translate(636.37 621.19) rotate(-90)"><tspan x="0" y="0">2.1.3.2b</tspan></text>
        <text class="cls-24" transform="translate(677.33 601.73) rotate(-90)"><tspan x="0" y="0">2.1.3.3</tspan></text>
        <text class="cls-24" transform="translate(718.28 543.34) rotate(-90)"><tspan x="0" y="0">2.2</tspan></text>
        <text class="cls-24" transform="translate(759.24 572.53) rotate(-90)"><tspan x="0" y="0">2.2.1</tspan></text>
        <text class="cls-24" transform="translate(800.2 601.73) rotate(-90)"><tspan x="0" y="0">2.2.1.1</tspan></text>
        <text class="cls-24" transform="translate(841.15 621.19) rotate(-90)"><tspan x="0" y="0">2.2.1.1a</tspan></text>
        <text class="cls-24" transform="translate(882.1 601.73) rotate(-90)"><tspan x="0" y="0">2.2.1.2</tspan></text>
        <text class="cls-24" transform="translate(923.06 572.53) rotate(-90)"><tspan x="0" y="0">2.2.2</tspan></text>
        <text class="cls-24" transform="translate(964.02 601.73) rotate(-90)"><tspan x="0" y="0">2.2.2.1</tspan></text>
        <text class="cls-24" transform="translate(1004.97 572.53) rotate(-90)"><tspan x="0" y="0">2.3.1</tspan></text>
        <text class="cls-24" transform="translate(1045.93 572.53) rotate(-90)"><tspan x="0" y="0">2.3.2</tspan></text>
        <text class="cls-24" transform="translate(1086.89 572.53) rotate(-90)"><tspan x="0" y="0">2.3.3</tspan></text>
        <text class="cls-24" transform="translate(1127.84 572.53) rotate(-90)"><tspan x="0" y="0">2.3.4</tspan></text>
        <text class="cls-24" transform="translate(1168.8 601.73) rotate(-90)"><tspan x="0" y="0">2.3.4.1</tspan></text>
        <text class="cls-24" transform="translate(1209.76 601.73) rotate(-90)"><tspan x="0" y="0">2.3.4.2</tspan></text>
        <text class="cls-24" transform="translate(1250.71 601.73) rotate(-90)"><tspan x="0" y="0">2.3.4.3</tspan></text>
        <text class="cls-24" transform="translate(1291.66 543.34) rotate(-90)"><tspan x="0" y="0">2.4</tspan></text>
        <text class="cls-24" transform="translate(1332.63 543.34) rotate(-90)"><tspan x="0" y="0">2.5</tspan></text>
        <text class="cls-24" transform="translate(1373.58 513.74) rotate(-90)"><tspan x="0" y="0">3</tspan></text>
        <text class="cls-24" transform="translate(1414.53 514.77) rotate(-90)"><tspan x="0" y="0">4</tspan></text>
        <text class="cls-24" transform="translate(1455.49 513.76) rotate(-90)"><tspan x="0" y="0">5</tspan></text>
        <text class="cls-24" transform="translate(1496.45 513.89) rotate(-90)"><tspan x="0" y="0">6</tspan></text>
        <text class="cls-24" transform="translate(1537.4 513.55) rotate(-90)"><tspan x="0" y="0">7</tspan></text>
        <text class="cls-24" transform="translate(1578.36 542.74) rotate(-90)"><tspan x="0" y="0">7.1</tspan></text>
        <text class="cls-24" transform="translate(1619.31 542.74) rotate(-90)"><tspan x="0" y="0">7.2</tspan></text>
        <text class="cls-24" transform="translate(1660.27 513.79) rotate(-90)"><tspan x="0" y="0">8</tspan></text>
        <text class="cls-24" transform="translate(1701.22 513.76) rotate(-90)"><tspan x="0" y="0">9</tspan></text>
        <text class="cls-24" transform="translate(1742.18 724.31) rotate(-90)"><tspan x="0" y="0">Am−nonGsGD</tspan></text>
        <text class="cls-24" transform="translate(1783.14 715.74) rotate(-90)"><tspan x="0" y="0">EA−nonGsGD</tspan></text>
        <text class="cls-31" transform="translate(34.33 331.98) rotate(-90)"><tspan class="cls-39" x="0" y="0">P</tspan><tspan x="24.68" y="0">ercent of</tspan></text>
        <text class="cls-31" transform="translate(72.13 351.31) rotate(-90)"><tspan x="0" y="0">assignments</tspan></text>
        <line class="cls-34" x1="1798.24" y1=".54" x2="1798.24" y2="477.64"/>
        <line class="cls-34" x1="1798.24" y1=".54" x2="152.73" y2=".54"/>
      </g>
    </g>
  </g>
</svg>